<svg id="Группа_1" data-name="Группа 1" xmlns="http://www.w3.org/2000/svg" xmlns:xlink="http://www.w3.org/1999/xlink" width="379.9" height="268.78" viewBox="0 0 379.9 268.78">
  <defs>
    <style>
      .cls-1 {
        fill: #70beda;
      }

      .cls-1, .cls-2, .cls-3, .cls-4, .cls-6 {
        fill-rule: evenodd;
      }

      .cls-2, .cls-3 {
        fill: #5ec7dd;
      }

      .cls-2 {
        opacity: 0.1;
      }

      .cls-3 {
        opacity: 0.2;
      }

      .cls-4, .cls-5 {
        fill: #f9e167;
      }

      .cls-6 {
        fill: url(#linear-gradient);
      }

      .cls-7 {
        fill: url(#linear-gradient-2);
      }
    </style>
    <linearGradient id="linear-gradient" x1="1345.615" y1="1323.94" x2="1556.515" y2="1534.84" gradientUnits="userSpaceOnUse">
      <stop offset="0" stop-color="#62a3d9"/>
      <stop offset="1" stop-color="#75c8da"/>
    </linearGradient>
    <linearGradient id="linear-gradient-2" x1="160.03" y1="100" x2="67.06" y2="7.03" gradientUnits="userSpaceOnUse">
      <stop offset="0" stop-color="#a352b1"/>
      <stop offset="0.774" stop-color="#f622c6"/>
      <stop offset="1" stop-color="#f622c6"/>
    </linearGradient>
  </defs>
  <path id="Фигура_3" data-name="Фигура 3" class="cls-1" d="M1601.19,1300.89c-21.39-2.01-33.48,16.69-28.86,34.35s22.58,32.63,35.73,10.99S1642.13,1304.73,1601.19,1300.89Z" transform="translate(-1255.19 -1300.72)"/>
  <path id="Фигура_4" data-name="Фигура 4" class="cls-2" d="M1270.98,1387.45c-29.02,36.32-19.91,84.57,43.46,81.07s68,0.75,93.38,34.35,56.08,88.14,109.47,57.71,27.75-109.72,46.69-160.76,19.69-90.48-27.37-93.44-63.7,54.34-119.13,57.71S1314.44,1333.04,1270.98,1387.45Z" transform="translate(-1255.19 -1300.72)"/>
  <path id="Фигура_5" data-name="Фигура 5" class="cls-3" d="M1351.47,1534.47c40.83,23.96,64.13,10.38,106.26-15.11s81.19-25.63,120.74-35.73,70.89-37.72,49.9-64.58-21.19-32.22-74.05-41.22-97.18-52.28-133.62-64.58-111.68,2.13-98.21,45.35,35.48,72.2,20.93,112.67S1336.02,1525.41,1351.47,1534.47Z" transform="translate(-1255.19 -1300.72)"/>
  <path id="Эллипс_2" data-name="Эллипс 2" class="cls-4" d="M1306.46,1427.3a7.555,7.555,0,1,1-7.56,7.56A7.552,7.552,0,0,1,1306.46,1427.3Z" transform="translate(-1255.19 -1300.72)"/>
  <circle id="Эллипс_4" data-name="Эллипс 4" class="cls-5" cx="280.045" cy="93.59" r="8.235"/>
  <path id="Фигура_2" data-name="Фигура 2" class="cls-6" d="M1450.78,1324.25c22.3-2.29,96.28,6.25,124.54,81.06s-7.45,134.86-64.83,129.16-78.42-52.28-110.89-52.21-90.02,13.94-81.89-31.6S1389.02,1330.57,1450.78,1324.25Z" transform="translate(-1255.19 -1300.72)"/>
  <circle id="Эллипс_3" data-name="Эллипс 3" class="cls-7" cx="113.545" cy="53.515" r="46.485"/>
  <circle id="Эллипс_5" data-name="Эллипс 5" class="cls-5" cx="287.72" cy="51.265" r="16.5"/>
  <path id="Фигура_6" data-name="Фигура 6" class="cls-1" d="M1353.86,1501.5c22.06-4.41,38.79,20.81,35.73,31.6s-10.68,11.75-31.61,4.12S1336,1505.07,1353.86,1501.5Z" transform="translate(-1255.19 -1300.72)"/>
  <path id="Прямоугольник_скругл._углы_1" data-name="Прямоугольник, скругл. углы 1" class="cls-4" d="M1504.42,1474.02h48.97a3,3,0,0,1,3,3v2.24a3,3,0,0,1-3,3h-48.97a3,3,0,0,1-3-3v-2.24A3,3,0,0,1,1504.42,1474.02Z" transform="translate(-1255.19 -1300.72)"/>
  <path id="Прямоугольник_скругл._углы_1_копия" data-name="Прямоугольник, скругл. углы 1 копия" class="cls-4" d="M1518.17,1489.13h48.96a3,3,0,0,1,3,3v2.24a3,3,0,0,1-3,3h-48.96a3,3,0,0,1-3-3v-2.24A3,3,0,0,1,1518.17,1489.13Z" transform="translate(-1255.19 -1300.72)"/>
  <path id="Прямоугольник_скругл._углы_1_копия_2" data-name="Прямоугольник, скругл. углы 1 копия 2" class="cls-4" d="M1531.91,1505.62h48.96a3,3,0,0,1,3,3v2.24a3,3,0,0,1-3,3h-48.96a3,3,0,0,1-3-3v-2.24A3,3,0,0,1,1531.91,1505.62Z" transform="translate(-1255.19 -1300.72)"/>
</svg>
